<svg width="100" height="55.99999999999999" xmlns="http://www.w3.org/2000/svg">
 <g>
  <title>Layer 1</title>
  <g stroke="null" id="svg_2">
   <g stroke="null" id="svg_14">
    <path stroke="null" fill="#d8d8d8" d="m0.82742,24.41078l38.8268,-24.10625l0,37.97684l-7.14326,-3.97853l0,-21.24895l-31.82821,19.80221l0.14467,-8.44533l0,0z" id="svg_7"/>
    <path stroke="null" fill="#4f4f4f" d="m46.76855,4.53599l-0.05425,45.87964l-31.82821,-18.08421l6.872,-4.24979l17.90337,10.21758l0,-38.15768l7.10709,4.39446l0,0z" id="svg_10"/>
    <path stroke="null" fill="#8d8d8d" d="m0.70831,32.6936l39.06183,22.22174l7.11797,-4.68745l-31.77047,-18.05535l17.44772,-10.76377l0,-8.42004l-31.85705,19.70487z" id="svg_12"/>
   </g>
   <text stroke="null" transform="matrix(0.267636 0 0 0.267636 31.4529 36.5365)" fill="#fe8604" x="55.65469" y="55.2947" id="svg_20" stroke-width="0" font-size="100" font-family="Noto Sans JP" text-anchor="start" xml:space="preserve">,</text>
   <g stroke="null" id="svg_16">
    <g stroke="null" id="svg_1">
     <path stroke="null" fill="#d8d8d8" d="m99.17791,24.79932l-37.43273,-24.08204l0,37.9387l6.88679,-3.97453l0,-21.22761l30.68542,19.78232l-0.13948,-8.43685l0,0z" id="svg_11"/>
     <path stroke="null" fill="#4f4f4f" d="m54.88629,4.94449l0.0523,45.83357l30.68542,-18.06605l-6.62526,-4.24552l-17.26055,10.20732l0,-38.11936l-6.85191,4.39004l0,0z" id="svg_13"/>
     <path stroke="null" fill="#8d8d8d" d="m99.29274,33.07381l-37.65932,22.19942l-6.8624,-4.68274l30.62975,-18.03722l-16.82126,-10.75295l0,-8.41159l30.71322,19.68507l0,0z" id="svg_15"/>
    </g>
   </g>
  </g>
 </g>

</svg>